<mxfile host="app.diagrams.net" modified="2023-06-25T11:20:36.036Z" agent="Mozilla/5.0 (Linux; Android 10; ANG-LX1) AppleWebKit/537.36 (KHTML, like Gecko) Chrome/109.0.0.0 Mobile Safari/537.36" version="21.5.0" etag="oJUKqpMpTn9_ZH2DKpGD" type="github">
  <diagram name="Page-1" id="VNBbsbMIYopzY4T6kBU2">
    <mxGraphModel>
      <root>
        <mxCell id="0" />
        <mxCell id="1" parent="0" />
      </root>
    </mxGraphModel>
  </diagram>
</mxfile>
